# xmcd CD database file
#
# Track frame offsets:
#	150
#	14072
#	31667
#	43662
#	59610
#	74967
#	91760
#	107772
#	122627
#	137930
#	154392
#	169467
#	182897
#	199562
#	215167
#	233087
#	249627
#	263475
#	280725
#	296312
#	309897
#	324810
#
# Disc length: 4536 seconds
#
# Revision: 0
# Processed by: cddbd v1.5.2PL0 Copyright (c) Steve Scherf et al.
# Submitted via: CdAid (MTCDDB.DLL V2003.12.21)
#
DISCID=4711b616
DTITLE=Various Artist - Motown History A Quiet Storm 1974 - 1975
DYEAR=1998
DGENRE=Soul
TTITLE0=Miracles - Do It Baby
TTITLE1=Syreeta - Your Kiss Is Sweet
TTITLE2=Commodores - I Feel Sanctified
TTITLE3=Yvonne Fair - It Should Have Been Me
TTITLE4=Diana Ross - Theme From Mahogany "Do You Know Where You're Going To"
TTITLE5=Michael Jackson - We're Almost There
TTITLE6=Diana Ross - Sorry Doesn't Always Make It Right
TTITLE7=Miracles - Don't Cha Love It
TTITLE8=Grover Washington Junior - Mister Magic
TTITLE9=Temptations - Happy People
TTITLE10=Temptations - Shakey Ground
TTITLE11=Commodores - Slippery When Wet
TTITLE12=Smokey Robinson - Baby That's Backatcha
TTITLE13=Jackson 5 - Forever Came Today
TTITLE14=Smokey Robinson - Quiet Storm
TTITLE15=Syreeta - Harmour Love
TTITLE16=Supremes - He's My Man
TTITLE17=Willie Hutch - Love Power
TTITLE18=Commodores - Sweet Love
TTITLE19=Miracles - Love Machine
TTITLE20=David Ruffin - Walk Away From Love
TTITLE21=G C Cameron - It's So Hard To Say Goodbye to Yesterday
EXTD=Mid Seventies Volume Two ID3G:  42 YEAR: 1998
EXTT0=
EXTT1=
EXTT2=
EXTT3=
EXTT4=
EXTT5=
EXTT6=
EXTT7=
EXTT8=
EXTT9=
EXTT10=
EXTT11=
EXTT12=
EXTT13=
EXTT14=
EXTT15=
EXTT16=
EXTT17=
EXTT18=
EXTT19=
EXTT20=
EXTT21=
PLAYORDER=
